<svg width="641" height="347" viewBox="0 0 641 347" fill="none" xmlns="http://www.w3.org/2000/svg">
<g filter="url(#filter0_d_397_19404)">
<path d="M332.85 133.85C331.12 126.4 327.76 121.27 322.86 118.6C322.8 118.57 322.75 118.54 322.69 118.52C320.22 117.46 318.06 115.75 316.29 113.44C316.27 113.41 316.25 113.38 316.22 113.36C312.64 109.18 308.4 107.06 303.63 107.06C301.3 107.06 298.82 107.58 296.26 108.6C296.2 108.63 296.14 108.65 296.08 108.68C290.91 111.37 286.09 115.03 281.74 119.6C269.67 132.64 261.08 148.21 256.21 165.86C253.27 169.16 248.6 175.51 241.96 185.23C233.1 198.22 224.54 208.28 216.56 215.1C208.22 221.81 203.49 223.22 201 223.22C200.13 223.22 199.38 223.06 198.72 222.73C195.01 220.24 191.69 210.9 196.69 180.69C196.69 180.65 196.93 179.54 200.4 176.46C201.01 175.92 201.65 175.35 202.34 174.76C203.87 173.56 205.25 172.4 206.44 171.3C207.76 170.21 209.17 169.05 210.68 167.82C214.94 164.38 218.34 161.28 220.79 158.63C234.2 144.22 246.99 127.77 258.8 109.76C270.65 91.67 278.81 75.24 283.05 60.91C285.16 53.5 285.04 46.8 282.68 41.01C280.15 34.81 275.09 31.66 267.63 31.66C256.1 31.66 243.29 39.25 229.55 54.22C206.24 79.94 188.43 115.24 176.6 159.14C176.49 159.54 176.39 159.94 176.28 160.33C170.88 163.29 165.01 166.65 158.81 170.31C146.2 177.76 135.15 183.68 125.99 187.92C116.95 192.1 107.21 195.42 97.0598 197.78C96.8598 197.78 96.6898 197.78 96.5498 197.76C96.5498 197.73 96.5498 197.7 96.5598 197.67C97.1498 193.77 98.0798 189.73 99.3398 185.67C100.61 181.55 102.51 176.4 104.98 170.39C107.45 164.37 109.22 159.96 110.24 157.32C110.8 155.9 112.31 154.78 114.74 153.97C122.28 151.32 129.93 147.19 137.46 141.7C155.31 128.67 171.13 113.71 184.48 97.24C197.89 80.7 206.75 63.7 210.81 46.69C212.87 39.64 213.24 32.09 211.9 24.24C210.49 16.01 206.85 10.38 201.07 7.49C199.09 6.5 196.91 6 194.59 6C186.56 6 176.83 11.86 164.86 23.92C150.22 38.65 137.72 54.26 127.68 70.32C103.9 108.28 85.6598 148.62 73.4498 190.22C71.3798 197.37 69.0998 207.88 66.6798 221.46C65.4598 224.62 62.0898 229.49 53.0298 235.06L47.9298 238.38C33.5298 246 22.8298 256.75 16.1398 270.27C9.84983 282.16 6.44983 294.57 6.02983 307.15C5.58983 320.26 10.0198 329.37 19.1998 334.22C22.5098 335.97 25.8598 336.85 29.1798 336.85C40.3998 336.85 50.9398 327.23 61.4098 307.44C73.3298 284.89 82.6798 259.96 89.1898 233.34C89.2098 233.29 89.2298 233.23 89.2398 233.17C90.5998 227.67 99.2398 222.21 100.78 221.86C100.82 221.86 100.86 221.86 100.9 221.84C109.01 220.42 118.13 217.66 128.01 213.62C141.63 208.07 155.79 201.49 170.15 194.05C169.53 202.15 169.65 210.02 170.52 217.49C171.57 226.53 174.91 233.8 180.42 239.1C185.98 244.45 193.61 247.16 203.11 247.16C212.61 247.16 222.92 242.34 233.27 232.82C240.64 225.95 248.25 217.7 255.91 208.28C256.96 211.42 258.28 214.45 259.84 217.32C259.87 217.37 259.9 217.42 259.93 217.47C265.04 225.13 271.46 229.56 279.01 230.64C280.16 230.81 281.33 230.89 282.47 230.89C288.81 230.89 295.04 228.33 300.98 223.29C316.47 210.25 327.4 187.55 333.46 155.79C334.7 148.37 334.49 140.99 332.84 133.86L332.85 133.85ZM284.24 201.51C284.1 201.51 283.95 201.5 283.77 201.47C280.54 201.03 278.9 196.85 278.9 189.05C278.9 172.43 285.59 155.93 298.78 140C301.95 136.85 303.69 136.38 304.45 136.38C304.79 136.38 305.82 136.38 306.8 138.98C308.07 143.44 307.5 151 305.1 161.45C302.65 172.12 299.08 181.85 294.49 190.35C289.24 200.06 285.82 201.51 284.24 201.51ZM257.79 61.02C256.64 63.71 254.23 68.65 249.21 77.69C241.37 91.77 232.48 106.1 222.76 120.28C214.3 132.63 209.82 137.58 207.55 139.56C208.13 137.72 209.31 134.59 211.69 129.28C215.94 119.78 221.51 109.1 228.24 97.52C234.93 86 240.5 77.79 244.78 73.13C250.95 66.49 255.06 62.91 257.8 61.03L257.79 61.02ZM129.19 117.69C138.63 98.6 146.59 84.38 152.89 75.37C159.89 65.36 171.78 51.91 188.25 35.41C188.16 40.27 186.11 47.04 182.14 55.53C178.03 64.34 173.57 71.78 168.88 77.65C158.08 91.48 144.74 104.94 129.19 117.7V117.69ZM30.3998 310.94C30.3398 310.9 30.2798 310.84 30.2098 310.72C29.7698 309.97 29.0598 307.19 31.9098 297.68C34.7998 288.03 38.2298 280.06 42.1098 273.96C43.7498 271.26 46.6398 268.26 50.7098 265.03C52.9598 263.25 54.5898 262.14 55.7498 261.44C54.7998 264.5 52.4698 270.7 46.8998 283.3C43.4698 291.05 39.8398 297.92 36.1098 303.71C32.5198 309.29 30.8898 310.62 30.3898 310.93L30.3998 310.94Z" fill="#0557DE"/>
</g>
<g filter="url(#filter1_d_397_19404)">
<path d="M412.94 133.85C411.21 126.4 407.85 121.27 402.95 118.6C402.89 118.57 402.84 118.54 402.78 118.52C400.31 117.46 398.15 115.75 396.38 113.44C396.36 113.41 396.34 113.38 396.31 113.36C392.73 109.18 388.49 107.06 383.72 107.06C381.39 107.06 378.91 107.58 376.35 108.6C376.29 108.63 376.23 108.65 376.17 108.68C371 111.37 366.19 115.03 361.83 119.6C349.26 133.19 340.47 149.48 335.71 168.01C330.9 186.73 332.32 203.32 339.94 217.31C339.97 217.36 340 217.41 340.03 217.46C345.14 225.12 351.56 229.55 359.11 230.63C360.26 230.8 361.43 230.88 362.57 230.88C368.91 230.88 375.14 228.32 381.08 223.28C396.57 210.24 407.5 187.54 413.56 155.78C414.8 148.36 414.59 140.98 412.94 133.85ZM364.33 201.51C364.19 201.51 364.04 201.5 363.86 201.47C360.63 201.03 358.99 196.85 358.99 189.05C358.99 172.43 365.68 155.93 378.87 140C382.04 136.85 383.78 136.38 384.54 136.38C384.88 136.38 385.91 136.38 386.89 138.98C388.16 143.44 387.59 151 385.19 161.45C382.74 172.12 379.17 181.85 374.58 190.35C369.33 200.06 365.91 201.51 364.33 201.51Z" fill="#0557DE"/>
</g>
<g filter="url(#filter2_d_397_19404)">
<path d="M548.37 112.07C547.58 111.96 546.82 111.9 546.1 111.9C545.38 111.9 544.65 111.96 543.98 112.08C542.48 112.35 541.16 113.05 540.07 114.13L537.97 116.23C537.14 117.07 536.44 118.35 535.84 120.16L534.64 123.76C534.33 124.7 533.88 126.25 533.26 128.52C532.64 130.81 532.25 132.36 532.04 133.39L526.67 153.08C525.93 155.6 524.75 159.63 523.13 165.16L521.27 171.53C518.68 180.41 516.55 188.16 514.95 194.56C514.58 196.05 514.21 197.6 513.83 199.24C509.48 196.36 503.71 192.86 496.65 188.84C494.97 187.8 492.33 186.22 488.8 184.16C486.4 182.76 483.32 180.98 482.15 180.38C478.21 178.07 476.62 176.67 475.96 175.89C475.33 175.15 475.39 174.7 475.72 174.12C476.09 173.47 477.29 171.95 481.18 169.03C481.23 168.99 481.27 168.96 481.32 168.92L484.33 166.21C497.15 154.46 498.55 141.55 488.53 127.91C478.8 113.64 464.86 105.88 447.04 104.84C446.6 104.83 446.16 104.82 445.73 104.82C439.69 104.82 434.89 106.24 431.46 109.04C427.82 112.02 425.22 116.77 423.73 123.19C423.11 125.9 422.24 130.06 421.17 135.55C420.08 141.09 418.87 147.09 417.57 153.38L413.82 171.53C412.58 177.51 411.65 182.18 410.96 185.81C410.33 189.13 410.08 190.35 410 190.74C410 190.76 409.98 190.79 409.98 190.81C407.51 198.43 406.52 206.05 407.04 213.47C407.75 223.73 413.34 226.66 417.85 227.3C419.14 227.52 420.31 227.63 421.33 227.63H423.73C424.89 227.63 426.01 227.21 426.95 226.42C427.58 225.9 428.14 225.4 428.59 224.94C429.19 224.34 429.72 223.46 430.23 222.17C430.66 221.1 430.99 220.1 431.21 219.21C431.41 218.42 431.71 217.22 432.11 215.61C432.52 213.96 432.84 212.44 433.05 211.08C433.24 209.79 433.54 208.01 433.94 205.72C434.35 203.36 434.74 201.27 435.12 199.37C437.49 188.86 439.2 187.66 439.31 187.59C439.34 187.58 439.47 187.53 439.76 187.53C440.84 187.53 443.67 188.14 450.46 192.25L499.68 221.06C503.61 223.31 507.19 224.7 510.35 225.21C511.39 235.08 517.32 237.22 522.27 237.22C525.02 237.22 527.31 236.31 529.08 234.53C530.69 232.92 531.81 231.19 532.41 229.4C532.94 227.81 533.51 225.57 534.11 222.76C540.46 194.17 545.9 172.93 550.26 159.64C556.18 141.26 559.06 129.88 559.06 124.83C559.06 121.56 558.04 118.7 556.03 116.33C554.02 113.97 551.44 112.53 548.34 112.05L548.37 112.07ZM446.73 153.24C446.01 152.31 445.06 149.7 446.83 142.76C448.49 136.46 450.65 132.75 452.77 132.55C455.26 132.58 458.28 134.08 461.76 137.03C466.23 140.81 466.9 143.05 466.9 144.05C466.9 146.03 464.76 148.28 460.72 150.56C456.25 153.08 452.54 154.35 449.7 154.35C447.6 154.35 446.95 153.51 446.74 153.23L446.73 153.24Z" fill="#0557DE"/>
</g>
<g filter="url(#filter3_d_397_19404)">
<path d="M604.906 64.1106C605.001 65.9178 605.381 75.2251 605.559 79.6528C602.602 75.1782 595.466 72.1016 590.49 71.1045C585.513 70.1075 581.867 72.9064 581.222 74.3066C580.577 75.7068 580.056 78.7787 584.648 82.7573C588.321 85.9402 596.798 85.8972 600.577 85.4779C598.105 86.7866 592.322 90.1534 588.965 93.1513C584.768 96.8986 585.792 99.3389 586.014 99.9716C586.236 100.604 587.576 103.225 592.207 101.918C595.912 100.872 600.678 96.1253 602.598 93.8825C601.577 97.0897 604.06 104.41 606.723 105.767C609.386 107.124 615.097 106.857 617.489 102.16C619.402 98.4018 615.963 92.1288 614.004 89.462C615.302 89.6435 618.232 89.9796 619.574 89.872C621.252 89.7375 629.926 87.1224 630.243 81.0685C630.56 75.0147 625.315 73.6109 620.876 73.4274C617.324 73.2807 613.579 75.6518 612.15 76.8557C612.282 75.4703 612.538 72.2747 612.515 70.5759C612.485 68.4525 611.087 61.5843 608.061 60.2722C605.035 58.9602 604.787 61.8515 604.906 64.1106Z" fill="#FE6641"/>
</g>
<defs>
<filter id="filter0_d_397_19404" x="0" y="0" width="344.256" height="346.85" filterUnits="userSpaceOnUse" color-interpolation-filters="sRGB">
<feFlood flood-opacity="0" result="BackgroundImageFix"/>
<feColorMatrix in="SourceAlpha" type="matrix" values="0 0 0 0 0 0 0 0 0 0 0 0 0 0 0 0 0 0 127 0" result="hardAlpha"/>
<feOffset dx="2" dy="2"/>
<feGaussianBlur stdDeviation="4"/>
<feComposite in2="hardAlpha" operator="out"/>
<feColorMatrix type="matrix" values="0 0 0 0 0 0 0 0 0 0 0 0 0 0 0 0 0 0 0.25 0"/>
<feBlend mode="normal" in2="BackgroundImageFix" result="effect1_dropShadow_397_19404"/>
<feBlend mode="normal" in="SourceGraphic" in2="effect1_dropShadow_397_19404" result="shape"/>
</filter>
<filter id="filter1_d_397_19404" x="326.923" y="101.06" width="97.433" height="139.82" filterUnits="userSpaceOnUse" color-interpolation-filters="sRGB">
<feFlood flood-opacity="0" result="BackgroundImageFix"/>
<feColorMatrix in="SourceAlpha" type="matrix" values="0 0 0 0 0 0 0 0 0 0 0 0 0 0 0 0 0 0 127 0" result="hardAlpha"/>
<feOffset dx="2" dy="2"/>
<feGaussianBlur stdDeviation="4"/>
<feComposite in2="hardAlpha" operator="out"/>
<feColorMatrix type="matrix" values="0 0 0 0 0 0 0 0 0 0 0 0 0 0 0 0 0 0 0.25 0"/>
<feBlend mode="normal" in2="BackgroundImageFix" result="effect1_dropShadow_397_19404"/>
<feBlend mode="normal" in="SourceGraphic" in2="effect1_dropShadow_397_19404" result="shape"/>
</filter>
<filter id="filter2_d_397_19404" x="400.905" y="98.82" width="168.154" height="148.4" filterUnits="userSpaceOnUse" color-interpolation-filters="sRGB">
<feFlood flood-opacity="0" result="BackgroundImageFix"/>
<feColorMatrix in="SourceAlpha" type="matrix" values="0 0 0 0 0 0 0 0 0 0 0 0 0 0 0 0 0 0 127 0" result="hardAlpha"/>
<feOffset dx="2" dy="2"/>
<feGaussianBlur stdDeviation="4"/>
<feComposite in2="hardAlpha" operator="out"/>
<feColorMatrix type="matrix" values="0 0 0 0 0 0 0 0 0 0 0 0 0 0 0 0 0 0 0.25 0"/>
<feBlend mode="normal" in2="BackgroundImageFix" result="effect1_dropShadow_397_19404"/>
<feBlend mode="normal" in="SourceGraphic" in2="effect1_dropShadow_397_19404" result="shape"/>
</filter>
<filter id="filter3_d_397_19404" x="574.803" y="53.9436" width="65.4534" height="62.5357" filterUnits="userSpaceOnUse" color-interpolation-filters="sRGB">
<feFlood flood-opacity="0" result="BackgroundImageFix"/>
<feColorMatrix in="SourceAlpha" type="matrix" values="0 0 0 0 0 0 0 0 0 0 0 0 0 0 0 0 0 0 127 0" result="hardAlpha"/>
<feOffset dx="2" dy="2"/>
<feGaussianBlur stdDeviation="4"/>
<feComposite in2="hardAlpha" operator="out"/>
<feColorMatrix type="matrix" values="0 0 0 0 0 0 0 0 0 0 0 0 0 0 0 0 0 0 0.2 0"/>
<feBlend mode="plus-darker" in2="BackgroundImageFix" result="effect1_dropShadow_397_19404"/>
<feBlend mode="normal" in="SourceGraphic" in2="effect1_dropShadow_397_19404" result="shape"/>
</filter>
</defs>
</svg>
