<svg width="760" height="152" viewBox="0 0 760 152" fill="none" xmlns="http://www.w3.org/2000/svg">
<path d="M569.954 55.7344C569.954 55.1379 569.954 54.475 569.954 53.8784C569.834 47.051 569.954 40.2236 571.76 33.3962C572.241 31.474 573.084 29.5517 574.047 27.6957C574.648 26.6351 575.732 25.5083 577.056 24.6466C580.065 22.5917 585 22.194 588.972 23.7186C590.657 24.3814 592.222 25.2431 593.426 26.1711C595.472 27.8283 597.398 29.5517 598.963 31.4077C603.416 36.6442 607.75 41.8808 612.203 47.1173C612.564 47.6476 613.046 48.1116 613.527 48.5756C613.768 48.5756 614.009 48.5093 614.129 48.5093C614.129 47.979 614.129 47.3825 614.129 46.8522C614.37 41.6156 614.731 36.3791 616.777 31.2088C617.259 30.0157 617.86 28.8225 618.462 27.6957C618.944 26.9665 619.425 26.1711 620.027 25.5083C624.842 20.0729 634.231 19.41 641.092 24.1826C643.499 25.906 645.665 27.762 647.23 29.7505C650.721 33.9928 653.851 38.3014 657.1 42.6099C657.582 43.2065 657.943 43.803 658.424 44.4659C659.147 44.2008 659.628 44.0019 660.11 43.7368C664.684 41.5493 669.739 41.0853 675.517 42.0796C678.767 42.6762 681.535 43.7368 683.943 45.0625C687.915 47.1836 690.563 49.7024 692.729 52.4864C693.211 53.0167 693.572 53.547 694.174 54.2099C695.016 53.8784 695.618 53.6133 696.34 53.2819C702.238 50.6967 708.738 50.0339 715.84 51.4259C720.414 52.2876 724.266 53.6796 727.636 55.6019C734.016 59.115 739.191 63.1584 743.164 67.5995C750.626 75.8189 755.441 84.5023 757.487 93.6497C758.45 98.0908 759.413 102.466 759.895 106.907C760.376 111.746 759.173 116.518 757.006 121.224C755.08 125.202 751.228 128.383 744.367 130.239C743.645 130.438 743.043 130.637 742.441 130.902C728.118 136.934 709.581 136.735 696.1 132.162C690.924 130.372 686.109 128.383 681.776 125.997C672.628 120.959 664.924 115.391 659.267 108.962C658.786 108.365 658.184 107.768 656.98 107.172C656.619 107.901 656.258 108.63 655.897 109.426C654.573 113.071 653.369 116.717 651.804 120.296C650.601 123.014 649.036 125.732 647.11 128.317C646.027 129.908 644.341 131.499 642.416 132.824C636.999 136.735 629.777 138.061 621.11 136.735C617.499 136.139 614.129 135.211 610.879 134.283C607.388 133.222 604.259 131.963 600.889 130.77C599.805 130.372 598.602 129.974 597.037 129.378C596.676 129.709 596.315 130.04 595.954 130.306C595.472 130.637 594.991 130.968 594.509 131.3C586.204 136.271 576.334 137.332 565.26 134.415C559.723 132.957 555.028 130.968 551.177 128.383C548.408 126.527 545.76 124.539 543.353 122.484C534.445 114.397 528.066 105.714 524.696 96.3674C522.048 89.0097 519.159 81.7183 517.594 74.2943C515.909 66.4727 515.788 58.651 518.437 50.8293C519.399 48.1116 520.724 45.4602 522.168 42.8088C522.89 41.4831 524.094 40.1574 525.298 38.8979C526.862 37.3071 529.39 36.4454 532.76 36.2465C537.695 35.9151 542.51 36.3128 546.482 37.9699C549.371 39.1631 552.14 40.4888 554.547 42.0133C559.843 45.2613 563.695 49.1059 566.945 53.083C567.667 54.011 568.51 54.8727 569.232 55.8007C569.473 55.7344 569.713 55.7344 569.954 55.7344Z" fill="#F99F00"/>
<path d="M369.394 109.741C369.394 110.337 369.394 111 369.394 111.597C369.514 118.424 369.394 125.251 367.588 132.079C367.107 134.001 366.264 135.923 365.301 137.779C364.7 138.84 363.616 139.967 362.292 140.829C359.283 142.883 354.348 143.281 350.376 141.757C348.691 141.094 347.126 140.232 345.922 139.304C343.876 137.647 341.95 135.923 340.385 134.067C335.932 128.831 331.598 123.594 327.145 118.358C326.784 117.827 326.302 117.363 325.821 116.899C325.58 116.899 325.339 116.966 325.219 116.966C325.219 117.496 325.219 118.093 325.219 118.623C324.978 123.859 324.617 129.096 322.571 134.266C322.089 135.459 321.487 136.653 320.886 137.779C320.404 138.509 319.923 139.304 319.321 139.967C314.506 145.402 305.117 146.065 298.256 141.293C295.849 139.569 293.682 137.713 292.118 135.725C288.627 131.482 285.497 127.174 282.247 122.865C281.766 122.269 281.405 121.672 280.923 121.009C280.201 121.274 279.72 121.473 279.238 121.738C274.664 123.926 269.609 124.39 263.831 123.395C260.581 122.799 257.813 121.738 255.405 120.413C251.433 118.291 248.785 115.773 246.619 112.989C246.137 112.458 245.776 111.928 245.174 111.265C244.332 111.597 243.73 111.862 243.007 112.193C237.109 114.778 230.61 115.441 223.508 114.049C218.934 113.187 215.082 111.796 211.712 109.873C205.332 106.36 200.156 102.317 196.184 97.8756C188.722 89.6562 183.907 80.9728 181.861 71.8254C180.898 67.3843 179.935 63.0094 179.453 58.5683C178.972 53.7295 180.175 48.9569 182.342 44.2507C184.268 40.2735 188.12 37.0918 194.981 35.2358C195.703 35.037 196.305 34.8381 196.907 34.573C211.23 28.541 229.767 28.7399 243.248 33.3136C248.424 35.1033 253.239 37.0918 257.572 39.4781C266.72 44.5158 274.424 50.0838 280.081 56.5135C280.562 57.11 281.164 57.7066 282.368 58.3032C282.729 57.574 283.09 56.8449 283.451 56.0495C284.775 52.4038 285.979 48.7581 287.544 45.1787C288.747 42.461 290.312 39.7433 292.238 37.1581C293.321 35.5673 295.006 33.9764 296.932 32.6507C302.349 28.7399 309.571 27.4142 318.237 28.7399C321.849 29.3364 325.219 30.2644 328.469 31.1924C331.959 32.253 335.089 33.5124 338.459 34.7056C339.543 35.1033 340.746 35.501 342.311 36.0976C342.672 35.7661 343.033 35.4347 343.394 35.1696C343.876 34.8381 344.357 34.5067 344.839 34.1753C353.144 29.2039 363.014 28.1433 374.088 31.0599C379.625 32.5181 384.319 34.5067 388.171 37.0918C390.94 38.9478 393.588 40.9364 395.995 42.9912C404.902 51.0781 411.282 59.7615 414.652 69.1077C417.3 76.4654 420.189 83.7568 421.754 91.1808C423.439 99.0024 423.559 106.824 420.911 114.646C419.948 117.363 418.624 120.015 417.18 122.666C416.458 123.992 415.254 125.318 414.05 126.577C412.486 128.168 409.958 129.03 406.588 129.229C401.652 129.56 396.838 129.162 392.866 127.505C389.977 126.312 387.208 124.986 384.801 123.462C379.505 120.214 375.653 116.369 372.403 112.392C371.681 111.464 370.838 110.602 370.116 109.674C369.875 109.741 369.635 109.741 369.394 109.741Z" fill="#F99F00"/>
<path d="M170.271 54.9673C170.03 53.7079 169.669 52.5147 169.428 51.2553C167.623 42.4394 165.095 33.6897 160.16 25.2714C158.715 22.7526 156.91 20.3 154.864 17.9138C153.54 16.3892 151.854 14.9309 149.808 13.6715C143.91 9.95949 135.605 10.3572 131.151 14.6658C129.225 16.5218 128.022 18.6429 126.577 20.6314C126.096 21.228 125.855 21.8246 125.012 22.4212C124.772 21.9572 124.531 21.4932 124.29 21.0292C122.605 17.1846 120.92 13.2738 117.911 9.62807C116.466 7.83837 114.781 6.11494 112.855 4.45781C111.772 3.46353 110.207 2.60182 108.642 1.87268C103.948 -0.248453 98.1704 -0.314744 93.1149 1.60753C90.4668 2.60181 88.4206 3.99381 86.7354 5.45209C83.7262 8.03722 81.5596 10.7549 79.754 13.6052C75.3004 20.4326 72.1709 27.5251 69.4024 34.6177C66.6339 41.9754 64.1062 49.3993 61.4581 56.757C61.3377 57.221 61.097 57.6187 60.3748 58.0827C59.8933 57.4861 59.5322 56.9559 59.0508 56.3593C55.8008 51.9182 52.0694 47.6096 46.8936 43.7651C44.4862 41.9754 41.7178 40.3182 38.8289 38.7937C36.1808 37.4017 32.6902 36.54 28.9588 36.3411C23.6626 36.0097 19.0886 37.0702 15.2368 39.0588C11.9869 40.7159 9.82025 42.7708 8.01473 44.9582C5.00553 48.7365 3.32038 52.7136 2.23707 56.757C-0.651765 67.8267 -0.531393 78.9626 1.39449 90.0323C2.83891 98.1854 5.36663 106.206 9.69988 114.028C11.385 116.944 13.3109 119.861 16.0794 122.512C18.0053 124.434 20.2923 126.158 23.3015 127.682C31.1254 131.461 40.5141 131.858 49.1806 128.876C52.5509 127.682 55.3193 126.224 57.8471 124.501C61.3377 122.114 64.2266 119.596 66.5136 116.812C69.1617 113.63 71.569 110.382 74.0968 107.2C74.4579 106.736 74.819 106.272 75.4208 105.477C76.0226 106.14 76.3837 106.471 76.7448 106.869C79.754 110.448 82.6429 114.028 85.8928 117.474C89.1428 120.921 93.1149 124.103 98.2907 126.821C100.818 128.146 103.587 129.34 106.476 130.268C114.42 132.786 122.725 132.919 131.151 130.732C136.447 129.34 140.781 127.285 144.753 124.898C149.086 122.313 152.577 119.397 155.827 116.414C156.308 115.95 156.91 115.42 157.632 114.823C158.234 115.353 158.595 115.751 158.956 116.149C162.808 120.457 168.465 123.838 176.048 126.29C182.067 128.213 188.446 129.737 195.307 130.4C201.085 131.063 206.261 130.268 210.955 128.279C216.251 126.025 220.224 123.175 222.51 119.728C224.075 117.474 225.52 115.154 226.483 112.768C228.77 106.869 230.936 100.903 232.621 95.0037C236.232 82.6083 238.399 70.1467 238.158 57.6187C238.038 50.5262 237.075 43.4336 234.186 36.4737C232.983 33.4908 231.538 30.5743 228.89 27.9228C227.084 26.1331 225.159 24.2771 222.631 22.8189C215.288 18.3115 205.539 18.2452 197.835 22.5537C195.548 23.8132 193.381 25.2714 191.817 26.796C188.687 29.8451 185.678 32.9605 183.391 36.1422C179.178 41.9091 175.567 47.8085 171.836 53.5753C171.474 54.0393 171.234 54.5033 170.873 54.9673C170.632 54.9673 170.512 54.9673 170.271 54.9673Z" fill="#F99F00"/>
<path d="M420.585 97.2417C420.826 98.5011 421.187 99.6942 421.428 100.954C423.233 109.77 425.761 118.519 430.696 126.938C432.14 129.456 433.946 131.909 435.992 134.295C437.316 135.82 439.001 137.278 441.048 138.538C446.946 142.249 455.251 141.852 459.705 137.543C461.631 135.687 462.834 133.566 464.279 131.578C464.76 130.981 465.001 130.384 465.844 129.788C466.084 130.252 466.325 130.716 466.566 131.18C468.251 135.024 469.936 138.935 472.945 142.581C474.39 144.371 476.075 146.094 478.001 147.751C479.084 148.745 480.649 149.607 482.214 150.336C486.908 152.457 492.686 152.524 497.741 150.601C500.389 149.607 502.435 148.215 504.121 146.757C507.13 144.172 509.296 141.454 511.102 138.604C515.556 131.776 518.685 124.684 521.454 117.591C524.222 110.234 526.75 102.81 529.398 95.452C529.518 94.988 529.759 94.5903 530.481 94.1263C530.963 94.7228 531.324 95.2531 531.805 95.8497C535.055 100.291 538.787 104.599 543.962 108.444C546.37 110.234 549.138 111.891 552.027 113.415C554.675 114.807 558.166 115.669 561.897 115.868C567.193 116.199 571.767 115.139 575.619 113.15C578.869 111.493 581.036 109.438 582.841 107.251C585.85 103.473 587.536 99.4954 588.619 95.452C591.508 84.3823 591.387 73.2464 589.461 62.1767C588.017 54.0236 585.489 46.0031 581.156 38.1814C579.471 35.2648 577.545 32.3483 574.777 29.6968C572.851 27.7746 570.564 26.0511 567.554 24.5266C559.731 20.7483 550.342 20.3506 541.675 23.3334C538.305 24.5266 535.537 25.9849 533.009 27.7083C529.518 30.0946 526.629 32.6134 524.342 35.3974C521.694 38.5791 519.287 41.8271 516.759 45.0088C516.398 45.4728 516.037 45.9368 515.435 46.7322C514.833 46.0693 514.472 45.7379 514.111 45.3402C511.102 41.7608 508.213 38.1814 504.963 34.7345C501.713 31.2877 497.741 28.106 492.565 25.3883C490.037 24.0626 487.269 22.8694 484.38 21.9414C476.436 19.4226 468.131 19.29 459.705 21.4774C454.409 22.8694 450.075 24.9243 446.103 27.3106C441.77 29.8957 438.279 32.8123 435.029 35.7951C434.548 36.2591 433.946 36.7894 433.224 37.3859C432.622 36.8557 432.261 36.4579 431.9 36.0602C428.048 31.7517 422.391 28.3711 414.808 25.9186C408.789 23.9963 402.41 22.4717 395.549 21.8089C389.771 21.146 384.595 21.9414 379.901 23.93C374.605 26.1837 370.632 29.034 368.345 32.4808C366.781 34.7345 365.336 37.0545 364.373 39.4408C362.086 45.3402 359.92 51.3059 358.235 57.2053C354.624 69.6007 352.457 82.0623 352.698 94.5903C352.818 101.683 353.781 108.775 356.67 115.735C357.873 118.718 359.318 121.635 361.966 124.286C363.771 126.076 365.697 127.932 368.225 129.39C375.568 133.898 385.317 133.964 393.021 129.655C395.308 128.396 397.475 126.938 399.039 125.413C402.169 122.364 405.178 119.248 407.465 116.067C411.678 110.3 415.289 104.401 419.02 98.6337C419.381 98.1697 419.622 97.7057 419.983 97.2417C420.224 97.2417 420.344 97.2417 420.585 97.2417Z" fill="#F99F00"/>
</svg>
