<svg width="328" height="134" viewBox="0 0 328 134" fill="none" xmlns="http://www.w3.org/2000/svg">
<path d="M286.454 101.181C286.454 101.733 286.454 102.345 286.454 102.896C286.547 109.204 286.454 115.511 285.054 121.819C284.68 123.595 284.027 125.371 283.28 127.085C282.813 128.065 281.973 129.106 280.947 129.902C278.613 131.801 274.786 132.168 271.706 130.76C270.399 130.147 269.186 129.351 268.252 128.494C266.665 126.963 265.172 125.371 263.958 123.656C260.505 118.818 257.144 113.98 253.691 109.142C253.411 108.653 253.037 108.224 252.664 107.795C252.477 107.795 252.291 107.856 252.197 107.856C252.197 108.346 252.197 108.897 252.197 109.387C252.011 114.225 251.731 119.063 250.144 123.84C249.77 124.942 249.304 126.044 248.837 127.085C248.464 127.759 248.09 128.494 247.624 129.106C243.89 134.128 236.609 134.74 231.289 130.331C229.422 128.739 227.742 127.024 226.528 125.187C223.821 121.268 221.395 117.287 218.874 113.307C218.501 112.756 218.221 112.204 217.848 111.592C217.287 111.837 216.914 112.021 216.541 112.266C212.994 114.286 209.073 114.715 204.593 113.797C202.073 113.245 199.926 112.266 198.059 111.041C194.979 109.081 192.925 106.754 191.245 104.182C190.872 103.692 190.592 103.202 190.125 102.59C189.472 102.896 189.005 103.141 188.445 103.447C183.871 105.836 178.831 106.448 173.323 105.162C169.776 104.366 166.79 103.08 164.176 101.304C159.229 98.0582 155.215 94.3227 152.135 90.2197C146.348 82.6261 142.614 74.6038 141.027 66.1529C140.28 62.0499 139.534 58.0082 139.16 53.9052C138.787 49.4348 139.72 45.0256 141.401 40.6776C142.894 37.0033 145.881 34.0639 151.201 32.3492C151.761 32.1655 152.228 31.9818 152.695 31.7368C163.803 26.1641 178.177 26.3478 188.632 30.5733C192.645 32.2267 196.379 34.0639 199.739 36.2685C206.833 40.9226 212.807 46.0667 217.194 52.0068C217.568 52.5579 218.034 53.1091 218.968 53.6602C219.248 52.9866 219.528 52.313 219.808 51.5781C220.834 48.21 221.768 44.8419 222.981 41.535C223.915 39.0242 225.128 36.5134 226.622 34.1251C227.462 32.6554 228.769 31.1857 230.262 29.9609C234.462 26.3478 240.063 25.123 246.784 26.3478C249.584 26.899 252.197 27.7563 254.718 28.6136C257.424 29.5935 259.851 30.757 262.465 31.8593C263.305 32.2267 264.238 32.5942 265.452 33.1453C265.732 32.8391 266.012 32.5329 266.292 32.288C266.665 31.9818 267.039 31.6756 267.412 31.3694C273.853 26.7765 281.507 25.7967 290.094 28.4912C294.388 29.8384 298.028 31.6756 301.015 34.0639C303.162 35.7786 305.216 37.6157 307.082 39.5141C313.99 46.9852 318.937 55.0075 321.55 63.6421C323.604 70.4396 325.844 77.1759 327.058 84.0346C328.364 91.2608 328.458 98.4869 326.404 105.713C325.657 108.224 324.631 110.673 323.511 113.123C322.95 114.348 322.017 115.572 321.084 116.736C319.87 118.206 317.91 119.002 315.296 119.186C311.469 119.492 307.736 119.124 304.655 117.593C302.415 116.491 300.268 115.266 298.402 113.858C294.295 110.857 291.308 107.305 288.787 103.631C288.227 102.774 287.574 101.978 287.014 101.12C286.827 101.181 286.64 101.181 286.454 101.181Z" fill="#F99F00"/>
<path d="M132.04 50.5778C131.853 49.4142 131.573 48.312 131.387 47.1484C129.987 39.0037 128.026 30.9202 124.199 23.1429C123.079 20.8158 121.679 18.55 120.092 16.3454C119.066 14.9369 117.759 13.5897 116.172 12.4261C111.598 8.99676 105.158 9.36419 101.704 13.3447C100.21 15.0594 99.2771 17.019 98.157 18.8562C97.7836 19.4073 97.5969 19.9585 96.9435 20.5096C96.7568 20.081 96.5702 19.6523 96.3835 19.2236C95.0767 15.6718 93.7699 12.0587 91.4364 8.69057C90.3163 7.03713 89.0095 5.44492 87.516 3.91396C86.6759 2.99538 85.4625 2.19928 84.249 1.52566C80.6087 -0.43398 76.1283 -0.495225 72.2079 1.2807C70.1544 2.19927 68.5676 3.48529 67.2608 4.83254C64.9273 7.22084 63.2471 9.73163 61.847 12.3649C58.3933 18.6725 55.9664 25.225 53.8196 31.7775C51.6727 38.575 49.7125 45.4337 47.659 52.2312C47.5657 52.6599 47.379 53.0273 46.8189 53.456C46.4456 52.9049 46.1655 52.4149 45.7922 51.8638C43.2719 47.7608 40.3784 43.7803 36.3647 40.2285C34.4978 38.575 32.3509 37.0441 30.1107 35.6356C28.0572 34.3496 25.3503 33.5535 22.4567 33.3697C18.3497 33.0635 14.8027 34.0434 11.8157 35.8805C9.29551 37.4115 7.61535 39.3099 6.21522 41.3308C3.88168 44.8214 2.57489 48.4957 1.73481 52.2312C-0.505394 62.4581 -0.412049 72.7462 1.08142 82.973C2.20152 90.5054 4.1617 97.9152 7.522 105.141C8.82879 107.836 10.3223 110.53 12.4691 112.98C13.9626 114.756 15.7361 116.348 18.0696 117.757C24.1369 121.247 31.4175 121.615 38.1381 118.859C40.7517 117.757 42.8986 116.409 44.8588 114.817C47.5657 112.613 49.8059 110.285 51.5794 107.713C53.6329 104.774 55.4997 101.773 57.4599 98.8338C57.7399 98.4051 58.02 97.9765 58.4867 97.2416C58.9534 97.854 59.2334 98.1602 59.5134 98.5276C61.847 101.835 64.0872 105.141 66.6074 108.326C69.1276 111.51 72.2079 114.45 76.2216 116.96C78.1818 118.185 80.3287 119.288 82.5689 120.145C88.7294 122.472 95.17 122.594 101.704 120.574C105.811 119.288 109.171 117.389 112.252 115.185C115.612 112.796 118.319 110.102 120.839 107.346C121.212 106.917 121.679 106.427 122.239 105.876C122.706 106.366 122.986 106.734 123.266 107.101C126.253 111.082 130.64 114.205 136.52 116.471C141.188 118.246 146.135 119.655 151.455 120.267C155.936 120.88 159.949 120.145 163.59 118.308C167.697 116.226 170.777 113.592 172.55 110.408C173.764 108.326 174.884 106.182 175.631 103.978C177.404 98.5276 179.084 93.0161 180.391 87.5659C183.191 76.1143 184.872 64.6014 184.685 53.0273C184.592 46.4748 183.845 39.9223 181.605 33.4922C180.671 30.7365 179.551 28.042 177.498 25.5924C176.097 23.939 174.604 22.2243 172.644 20.8771C166.95 16.7128 159.389 16.6516 153.415 20.6321C151.642 21.7956 149.962 23.1429 148.748 24.5514C146.321 27.3683 143.988 30.2466 142.214 33.186C138.947 38.5138 136.147 43.964 133.254 49.2918C132.973 49.7204 132.787 50.1491 132.507 50.5778C132.32 50.5778 132.227 50.5778 132.04 50.5778Z" fill="#F99F00"/>
</svg>
