<svg width="20" height="20" viewBox="0 0 20 20" fill="none" xmlns="http://www.w3.org/2000/svg">
<path d="M9.66878 2.63286C9.70693 3.35711 9.85934 7.08697 9.93077 8.86136C8.74578 7.06817 5.88604 5.83523 3.89164 5.43568C1.89724 5.03613 0.436184 6.15778 0.177764 6.7189C-0.0806563 7.28001 -0.289625 8.51106 1.55055 10.1055C3.02269 11.381 6.4196 11.3638 7.93404 11.1958C6.94352 11.7202 4.62611 13.0695 3.28067 14.2709C1.59886 15.7726 2.00917 16.7505 2.09806 17.0041C2.18695 17.2576 2.72382 18.3081 4.57987 17.7842C6.06472 17.365 7.97469 15.4627 8.74406 14.5639C8.33495 15.8492 9.32981 18.7829 10.3971 19.3267C11.4643 19.8705 13.753 19.7633 14.7114 17.8809C15.478 16.375 14.0999 13.8611 13.315 12.7924C13.835 12.8651 15.0094 12.9998 15.5473 12.9567C16.2195 12.9028 19.6956 11.8548 19.8227 9.42873C19.9498 7.00265 17.8477 6.44008 16.0688 6.36657C14.6456 6.30775 13.1447 7.25798 12.5721 7.74044C12.6247 7.18524 12.7275 5.90463 12.7181 5.22385C12.7063 4.37288 12.1459 1.62047 10.9332 1.09466C9.72056 0.568853 9.62109 1.72755 9.66878 2.63286Z" fill="#FE6641"/>
</svg>
