<svg width="235" height="143" viewBox="0 0 235 143" fill="none" xmlns="http://www.w3.org/2000/svg">
<path fill-rule="evenodd" clip-rule="evenodd" d="M140.64 14.7603C140.412 14.8701 140.093 15.155 139.785 15.1434C139.113 15.1173 138.483 15.2847 137.847 15.4102C137.248 15.5291 136.629 15.5514 136.049 15.7051C135.268 15.9118 134.477 16.0791 133.7 16.3003C132.825 16.5492 131.921 16.729 131.079 17.0624C130.334 17.3573 129.588 17.6456 128.844 17.9393C128.1 18.2334 127.334 18.4968 126.616 18.8269C124.649 19.7311 122.605 20.4183 120.59 21.1891C119.842 21.4762 119.082 21.8361 118.303 21.9131C117.367 22.0051 116.519 22.5249 115.557 22.4006C114.854 23.0104 113.884 22.6612 113.127 23.0783C111.873 23.0787 110.644 23.4345 109.379 23.3177C109.037 23.2862 108.691 23.2651 108.315 23.4738C108.013 23.6416 107.528 23.4995 107.127 23.4639C106.921 23.4453 106.723 23.326 106.517 23.3106C105.681 23.2477 104.854 23.3152 104.004 23.1205C103.214 22.9391 102.401 22.8091 101.6 22.6359C99.9867 22.2872 98.4185 21.7976 96.9063 21.1477C94.0934 19.9386 91.6153 18.1973 89.4022 16.1069C88.1343 14.909 86.9476 13.6188 85.7572 12.336C83.8291 10.2588 81.9101 8.14177 79.6465 6.40544C78.8392 5.78704 77.9603 5.22662 77.0404 4.79834C75.5467 4.10331 74.078 3.85769 72.4543 3.88171C71.6918 3.89331 70.9238 3.75952 70.1663 4.07804C69.8461 4.21225 69.4199 4.071 69.0471 4.1087C68.6602 4.14763 68.2585 4.19733 67.9027 4.33982C67.4259 4.53035 66.8651 4.41562 66.4554 4.65378C65.8051 5.03154 65.0683 5.13881 64.3915 5.40349C63.5813 5.72035 62.745 6.00822 61.9833 6.41373C61.2116 6.82378 60.4251 7.20899 59.6795 7.68988C57.4316 9.14 55.294 10.7177 53.3331 12.5373C53.1778 12.6814 53.0026 12.833 52.8087 12.9018C52.4761 13.019 52.4861 13.3591 52.3013 13.555C52.1108 13.7567 51.736 13.8317 51.6258 14.0533C51.2998 14.7098 50.7021 15.0999 50.2486 15.6276C49.795 16.1545 49.3307 16.6727 48.8941 17.214C48.4658 17.745 48.0612 18.2963 47.6565 18.846C47.3239 19.2979 46.773 19.6151 46.766 20.5028C46.8128 20.5198 47.0253 20.596 47.2369 20.6714C47.0257 20.8834 46.8923 21.0164 46.7593 21.1502C46.8451 21.2579 46.9304 21.3651 47.0766 21.5495C46.0879 22.2876 45.6696 23.3363 45.2815 24.417C45.1174 24.8755 44.8118 25.2827 44.5562 25.7383C44.5699 25.7536 44.644 25.8344 44.7099 25.9069C44.3885 26.8343 44.1242 27.7803 43.7332 28.6704C43.3964 29.4367 43.1251 30.2274 42.783 30.9879C42.4367 31.7587 41.9728 32.4823 41.9927 33.372C41.3271 34.3595 41.3379 35.5876 40.8479 36.6231C40.6101 37.1238 40.8942 37.828 40.2129 38.0794C40.6909 38.6924 40.1686 39.0441 40.007 39.4823C40.3318 39.7043 40.2651 40.0928 40.1632 40.3728C39.9279 41.0169 39.8587 41.6825 39.7444 42.3453C39.6272 43.0254 39.4445 43.6947 39.5162 44.3989C39.5464 44.6967 39.6479 45.1299 39.4972 45.2774C39.0656 45.6986 39.5758 46.3469 39.0693 46.696V48.2775C39.0693 48.4655 39.1434 48.7045 39.056 48.8329C38.7549 49.2724 38.8841 49.7516 38.8373 50.2163C38.7905 50.6773 38.6282 51.1338 38.6327 51.5915C38.6398 52.2989 38.3821 52.9144 38.1 53.5233C37.2936 55.2642 36.0829 56.7284 34.8237 58.1491C34.3134 58.7248 33.6681 59.1763 33.1118 59.6991C31.7396 60.9872 30.3595 62.2609 28.882 63.4269C28.1729 63.9869 27.4828 64.5734 26.748 65.0969C25.8832 65.7137 24.9922 66.2969 24.0876 66.8544C23.4638 67.2383 22.7783 67.5225 22.1554 67.9077C21.4376 68.3517 20.7417 68.8194 19.9779 69.1963C19.2266 69.567 18.5659 70.1042 17.798 70.4774C17.0996 70.8162 16.492 71.3418 15.8268 71.7975C15.8247 71.7954 15.7477 71.7308 15.7017 71.6918C15.5476 71.9056 15.4474 72.1889 15.2519 72.2924C13.8055 73.0575 12.6942 74.2147 11.5386 75.3331C10.2806 76.5508 9.36898 78.0034 8.57786 79.5339C7.54898 81.5246 6.54289 83.5334 6.2749 85.8078C5.86608 86.2647 6.29975 86.8802 6.0562 87.294C5.73354 87.8424 5.79691 88.4098 5.89632 88.9031C6.02017 89.5182 6.09969 90.1176 6.08105 90.6287C6.26123 91.0006 6.46088 91.2707 6.52425 91.5693C6.71188 92.4553 7.16875 93.2067 7.68608 93.9112C8.57247 95.1195 9.32798 96.442 10.6108 97.3218C10.9773 97.5732 11.2101 98.0263 11.5845 98.257C13.4708 99.4197 15.2834 100.702 17.2657 101.712C18.9507 102.57 20.6539 103.331 22.5 103.815C23.697 104.13 24.9115 104.428 26.1139 104.586C27.528 104.771 28.9682 105.011 30.4191 104.872C30.9045 104.825 31.4003 104.83 31.8866 104.871C33.4863 105.004 35.0664 104.735 36.647 104.599C37.2497 104.547 37.9451 104.602 38.4534 104.362C38.9699 104.118 39.4599 104.313 39.9395 104.127C40.4274 103.937 40.9531 103.802 41.4733 103.748C42.3622 103.654 43.1943 103.349 44.055 103.153C45.0131 102.936 45.9591 102.677 46.8989 102.386C48.1366 102.004 49.3874 101.663 50.6371 101.32C51.8553 100.985 53.0788 100.671 54.2999 100.345C55.2877 100.082 56.3029 99.8956 57.2726 99.6049C58.4622 99.2486 59.6932 99.1318 60.8815 98.7918C61.3111 98.6688 61.794 98.6625 62.2534 98.5598C62.7376 98.4517 63.2773 98.6298 63.7362 98.3125C64.7717 98.407 65.7836 98.1543 66.8063 98.1059C67.79 98.0591 68.7832 97.9944 69.7682 98.2893C70.2172 98.424 70.8609 98.1311 71.2001 98.3569C71.6553 98.6596 72.1379 98.356 72.5558 98.6704C72.9211 98.945 73.5039 98.5983 73.8858 98.9902C75.6292 99.1625 77.1874 99.9412 78.7357 100.641C80.3979 101.391 82.0091 102.273 83.4563 103.452C84.5784 104.366 85.7945 105.165 86.83 106.193C88.7001 108.048 90.5168 109.948 92.196 111.984C92.985 112.939 93.7782 113.898 94.595 114.828C95.6376 116.014 96.6138 117.263 97.7094 118.393C99.003 119.727 100.265 121.095 101.725 122.276C102.715 123.078 103.68 123.925 104.685 124.712C105.525 125.37 106.402 125.99 107.316 126.539C108.128 127.027 108.888 127.592 109.742 128.031C110.609 128.476 111.436 129.029 112.307 129.483C113.851 130.288 115.398 131.088 117.008 131.765C118.166 132.251 119.325 132.72 120.519 133.107C122.311 133.687 124.097 134.287 125.892 134.86C126.759 135.138 127.653 135.424 128.533 135.542C129.531 135.675 130.462 136.207 131.502 136.043C132.91 136.576 134.433 136.543 135.877 136.924C136.457 137.076 137.088 136.975 137.707 137.138C138.284 137.291 138.916 137.246 139.53 137.367C140.27 137.513 141.041 137.451 141.809 137.585C142.809 137.761 143.85 137.716 144.876 137.81C147.205 138.022 149.564 137.647 151.895 138.075C152.823 138.244 153.706 137.839 154.625 137.848C155.716 137.857 156.808 137.867 157.9 137.845C158.963 137.824 160.018 137.822 161.088 137.667C162.428 137.473 163.805 137.624 165.172 137.427C166.59 137.222 168.042 137.247 169.479 137.172C169.555 137.168 169.66 137.204 169.7 137.167C170.077 136.811 170.547 136.92 170.965 136.963C171.464 137.015 171.881 136.772 172.342 136.724C173.213 136.634 174.087 136.569 174.959 136.495C175.034 136.489 175.151 136.526 175.179 136.489C175.466 136.11 175.873 136.33 176.22 136.267C176.604 136.197 176.984 136.098 177.371 136.047C178.052 135.956 178.787 136.021 179.411 135.785C180.285 135.456 181.217 135.488 182.089 135.168C182.466 135.03 182.927 134.995 183.344 134.942C183.81 134.884 184.259 134.79 184.717 134.699C186.07 134.433 187.381 134.003 188.739 133.747C189.476 133.608 190.179 133.245 190.943 133.075C191.721 132.903 192.426 132.42 193.266 132.426C193.811 131.922 194.562 131.92 195.196 131.631C195.861 131.327 196.579 131.183 197.26 130.884C198.628 130.283 200.007 129.7 201.366 129.074C203.145 128.256 204.847 127.29 206.583 126.391C207.649 125.84 208.657 125.202 209.66 124.571C210.773 123.871 211.871 123.125 212.929 122.325C213.655 121.777 214.315 121.154 215.046 120.632C215.751 120.129 216.374 119.537 217.052 119.009C217.583 118.596 218.021 118.064 218.5 117.585C218.98 117.106 219.401 116.541 219.954 116.172C220.518 115.796 220.742 115.22 221.123 114.738C221.145 114.708 221.175 114.683 221.202 114.658C222.543 113.414 223.519 111.883 224.56 110.402C225.597 108.927 227.03 106.046 227.748 104.38C228.209 103.31 228.524 102.212 228.844 101.107C229.02 100.499 229.31 99.865 229.265 99.2648C229.188 98.2628 229.615 97.3027 229.332 96.278C229.143 95.5958 229.256 94.8457 229.117 94.113C228.957 93.2684 228.712 92.4599 228.374 91.7011C227.835 90.4883 227.03 89.4263 226.113 88.4566C225.254 87.5483 224.247 86.8226 223.269 86.0551C221.982 85.0444 220.612 84.1543 219.162 83.4174C217.301 82.4718 215.457 81.4852 213.479 80.7777C212.335 80.3681 211.273 79.7149 210.117 79.3599C208.541 78.8762 207.1 78.0921 205.576 77.4977C204.217 76.9679 202.955 76.1913 201.652 75.5199C200.277 74.812 199.044 73.8859 197.903 72.8657C196.942 72.0054 196.093 71.0076 195.263 70.0127C194.721 69.3624 194.217 68.6495 193.855 67.8895C193.497 67.1402 193.176 66.3606 192.827 65.6068C192.415 64.7134 192.134 63.776 191.833 62.8577C191.517 61.8964 191.302 60.875 191.147 59.8705C190.966 58.6975 190.807 57.5112 190.703 56.3312C190.603 55.2008 190.28 54.0788 190.439 52.9264C190.454 52.8154 190.49 52.6585 190.433 52.5947C190.033 52.1374 190.292 51.596 190.215 51.0998C190.139 50.6044 190.039 50.1107 189.995 49.612C189.902 48.5529 189.839 47.4909 189.764 46.4305C189.761 46.3928 189.775 46.3506 189.762 46.3179C189.228 45.0264 189.394 43.5779 188.86 42.2864C189.016 41.7902 188.579 41.3744 188.648 40.9142C188.725 40.4105 188.48 39.9914 188.386 39.5415C188.18 38.5491 187.878 37.5749 187.579 36.604C187.333 35.8054 187.015 35.0354 186.642 34.2812C186.255 33.5 185.962 32.689 185.5 31.9256C184.432 30.1636 183.291 28.4708 181.828 27.0177C180.882 26.0775 179.946 25.1017 178.873 24.3234C177.787 23.5356 176.699 22.7403 175.552 22.02C173.763 20.8959 171.856 20.0198 170.007 19.0245C169.374 19.051 168.915 18.573 168.322 18.4483C167.784 18.3353 167.256 18.1153 166.759 17.8718C166.22 17.6079 165.645 17.4663 165.087 17.2699C164.364 17.0144 163.653 16.6557 162.906 16.5496C161.111 16.2953 159.453 15.4392 157.617 15.3969C157.262 14.9011 156.65 15.3596 156.194 14.9835C155.875 14.7201 155.319 15.0241 154.824 14.7636C154.412 14.5462 153.792 14.7454 153.267 14.7093C152.956 14.6878 152.655 14.5366 152.343 14.5014C151.973 14.4596 151.594 14.4993 151.224 14.4617C151.107 14.4501 151.003 14.3034 150.973 14.2802C150.67 14.3722 150.472 14.4819 150.272 14.4848C149.105 14.5018 147.937 14.4637 146.771 14.5014C145.634 14.5383 144.498 14.6373 143.363 14.7218C142.788 14.7644 142.208 14.6058 141.633 14.9169C141.418 15.0341 141.028 14.8315 140.64 14.7603ZM193.027 38.8643C193.198 39.607 193.229 40.1691 193.456 40.6359C193.823 41.3901 193.806 42.2164 194.045 42.9898C194.191 43.4628 194.133 44.0166 194.347 44.4449C194.495 44.7439 194.502 45.0032 194.502 45.284C194.502 46.1551 194.641 46.988 194.931 47.8185C195.091 48.277 195.018 48.7977 195.146 49.3055C195.365 50.1795 195.339 51.1151 195.41 52.026C195.439 52.3822 195.395 52.7206 195.609 53.0789C195.758 53.3282 195.637 53.7391 195.637 54.0783C195.637 54.4549 195.529 54.8806 195.671 55.1921C195.789 55.4506 195.77 55.7219 195.82 55.9538C195.995 56.7669 196.001 57.6152 196.094 58.4473C196.142 58.8711 196.254 59.2869 196.311 59.7098C196.37 60.1344 196.173 60.6033 196.541 60.9711C196.496 61.9564 196.936 62.8615 197.007 63.8332C197.052 64.4611 197.536 65.0029 197.455 65.6756C198.19 66.6713 198.336 67.9574 199.119 68.9444C199.808 69.8151 200.443 70.6841 201.32 71.4238C202.403 72.3372 203.654 72.9266 204.826 73.6518C205.455 74.0408 206.203 74.3096 206.915 74.5912C207.627 74.8733 208.352 75.1293 209.037 75.4664C209.726 75.8053 210.447 76.0965 211.151 76.3582C212.36 76.8064 213.564 77.2691 214.74 77.7856C216.494 78.5556 218.225 79.3827 219.926 80.2621C220.956 80.7943 221.888 81.5134 222.906 82.073C224.094 82.7266 225.157 83.5641 226.246 84.3486C227.32 85.1231 228.239 86.118 229.205 87.0384C231.071 88.8157 232.481 90.9232 233.416 93.3111C233.823 94.3482 234.142 95.4264 234.325 96.563C234.511 97.7149 234.43 98.8436 234.487 99.9801C234.503 100.291 234.634 100.656 234.291 100.922C234.259 100.946 234.516 101.255 234.471 101.363C234.34 101.681 234.331 102.014 234.281 102.337C234.222 102.725 234.212 103.103 234.088 103.498C233.982 103.841 233.792 104.057 233.693 104.183C233.737 104.531 233.857 104.801 233.782 104.996C232.977 107.073 232.239 109.175 231.122 111.124C230.171 112.783 229.197 114.425 228.035 115.939C226.427 118.034 223.613 121.08 221.564 122.854C219.826 124.358 218.131 125.937 216.073 127.032C215.978 127.082 215.961 127.278 215.891 127.447C215.81 127.385 215.737 127.329 215.664 127.273C214.985 128.006 214.167 128.56 213.29 129.041C212.645 129.395 212 129.752 211.374 130.141C210.629 130.604 209.856 130.998 209.034 131.312C208.75 131.42 208.552 131.751 208.268 131.867C207.493 132.18 206.741 132.547 205.983 132.893C205.347 133.184 204.788 133.641 204.157 133.941C203.657 134.179 203.094 134.283 202.567 134.465C202.272 134.567 201.998 134.733 201.701 134.826C201.451 134.905 201.226 135.239 200.918 134.941C200.697 135.12 200.56 135.369 200.191 135.391C199.907 135.408 199.647 135.688 199.358 135.81C199.102 135.917 198.817 135.956 198.552 136.045C198.255 136.145 197.97 136.344 197.672 136.36C197.235 136.384 196.904 136.521 196.555 136.787C196.293 136.987 195.911 137.063 195.57 137.116C194.592 137.27 193.745 137.928 192.71 137.85C192.103 138.353 191.305 138.263 190.612 138.51C189.952 138.744 189.206 138.752 188.559 139.012C188.236 139.142 187.865 139.074 187.643 139.233C187.359 139.438 187.097 139.394 186.815 139.438C186.503 139.485 186.202 139.61 185.89 139.649C185.593 139.686 185.284 139.629 184.988 139.668C184.829 139.69 184.684 139.826 184.546 139.903C184.398 139.806 184.279 139.729 184.166 139.655C184.089 139.674 184.003 139.67 183.955 139.711C183.736 139.897 183.589 140.142 183.215 140.128C182.872 140.115 182.528 140.283 182.178 140.328C181.859 140.369 181.509 140.261 181.257 140.561C180.623 140.438 180.042 140.742 179.43 140.783C178.998 140.812 178.581 140.779 178.158 140.993C177.823 141.161 177.344 140.843 177.008 141.22C176.973 141.259 176.867 141.234 176.793 141.239C175.695 141.314 174.596 141.377 173.499 141.47C173 141.513 172.507 141.615 172.01 141.691C171.552 141.761 171.056 141.525 170.624 141.903C170.517 141.996 170.26 141.916 170.071 141.916C169.619 141.916 169.144 142.005 168.723 141.892C168.294 141.778 167.942 142.472 167.537 141.944C167.201 142.259 166.784 142.122 166.398 142.138C165.948 142.157 165.459 142.031 165.05 142.164C163.843 142.555 162.616 142.382 161.411 142.34C159.92 142.289 158.472 142.669 156.984 142.608C155.481 142.546 153.973 142.583 152.467 142.599C151.474 142.609 150.519 142.273 149.51 142.352C148.537 142.429 147.526 142.51 146.582 142.329C145.623 142.145 144.681 142.201 143.732 142.135C143.271 142.103 142.817 141.974 142.356 141.921C141.893 141.869 141.396 142.036 140.982 141.691C140.161 141.865 139.403 141.359 138.591 141.469C138.175 141.525 137.821 141.341 137.439 141.25C137.061 141.16 136.683 141.216 136.278 141.05C135.73 140.825 135.073 140.875 134.467 140.781C134.229 140.743 134.006 140.599 133.768 140.567C132.713 140.426 131.687 140.161 130.66 139.888C129.165 139.491 127.64 139.193 126.172 138.717C125.609 138.534 125.011 138.478 124.465 138.207C123.939 137.945 123.347 137.819 122.788 137.622C122.164 137.403 121.54 137.183 120.923 136.943C119.82 136.516 118.732 136.05 117.623 135.64C115.066 134.696 112.667 133.415 110.239 132.196C109.707 131.93 109.219 131.575 108.689 131.302C107.217 130.543 105.919 129.497 104.431 128.768C103.241 127.536 101.628 126.866 100.393 125.672C99.4644 124.775 98.2827 124.138 97.3582 123.237C96.1628 122.071 94.8274 121.025 93.8996 119.6C93.7993 119.445 93.6328 119.335 93.5057 119.197C92.6785 118.298 91.8174 117.426 91.0387 116.488C90.1987 115.474 89.3255 114.488 88.493 113.472C87.4413 112.19 86.3752 110.93 85.2047 109.756C84.8211 109.371 84.5494 108.872 84.1526 108.506C82.6027 107.076 81.1086 105.548 79.2497 104.53C77.7586 103.714 76.2621 102.877 74.5224 102.567C73.6812 102.417 72.8449 102.25 71.9987 102.111C71.2312 101.984 70.4777 101.912 69.714 101.938C69.2161 101.955 68.724 102.109 68.2253 102.145C67.7009 102.182 67.1302 102.029 66.6563 102.188C66.1845 102.346 65.6892 102.248 65.2832 102.412C64.8475 102.589 64.408 102.494 64.0141 102.624C63.1385 102.913 62.2165 102.947 61.3289 103.214C60.6011 103.433 59.8096 103.54 59.0545 103.736C58.0351 104 57.0245 104.301 55.9977 104.533C54.4208 104.89 52.8891 105.409 51.3205 105.8C49.8228 106.174 48.3524 106.664 46.826 106.935C46.4396 107.357 45.8618 107.003 45.395 107.318C45.045 107.554 44.4986 107.493 44.0422 107.578C43.6947 107.642 43.3538 107.75 43.005 107.794C42.6853 107.835 42.3398 107.731 42.0772 108.022C42.0432 108.06 41.9318 108.022 41.8569 108.028C40.9092 108.102 39.9308 108.055 39.0212 108.283C37.7269 108.607 36.4395 108.383 35.1547 108.483C34.8382 108.507 34.5052 108.369 34.2074 108.673C34.0956 108.788 33.753 108.767 33.5575 108.694C32.4748 108.291 31.3552 108.573 30.2588 108.475C29.7228 108.427 29.191 108.333 28.6579 108.252C28.1621 108.176 27.6792 108.288 27.1498 108.079C26.6938 107.898 26.0977 107.946 25.5667 107.813C25.0465 107.683 24.4625 107.749 23.9779 107.553C23.1842 107.232 22.3273 107.262 21.5233 106.936C20.7591 106.627 19.9013 106.508 19.1093 106.219C18.4876 105.993 17.8498 105.799 17.2545 105.516C16.026 104.934 14.7892 104.356 13.6133 103.676C11.5903 102.506 9.60011 101.283 7.72585 99.8728C7.1004 99.4027 6.59922 98.8108 5.98662 98.3502C5.04265 97.6407 4.35715 96.6914 3.55484 95.8555C2.89419 95.1679 2.39715 94.318 1.862 93.5173C1.27591 92.6405 0.868333 91.6737 0.582948 90.6602C0.430108 90.1167 0.22425 89.5895 0.198984 89.0075C0.17496 88.4715 0.00803681 87.9409 0.000166984 87.4062C-0.00604603 86.9866 0.162948 86.5675 0.201469 86.1437C0.239161 85.7332 0.0449007 85.1815 0.247859 84.9334C0.564723 84.5462 0.201055 84.0035 0.661646 83.7339C0.838096 82.3948 1.4391 81.2044 1.90466 79.958C2.33005 78.8211 2.9994 77.846 3.56437 76.8072C4.1223 75.7817 4.76679 74.7983 5.51608 73.8767C6.4265 72.7559 7.43425 71.7759 8.54265 70.8535C10.146 69.5181 11.8521 68.3409 13.5901 67.2019C14.6824 66.4862 15.7899 65.7924 16.8996 65.1031C17.9757 64.4346 19.0758 63.8034 20.1419 63.1195C20.9505 62.6014 21.8116 62.1652 22.5261 61.4963C22.9668 61.0833 23.5235 60.7971 23.9857 60.404C24.7727 59.7347 25.4901 58.9796 26.3032 58.3463C27.2442 57.6131 28.0946 56.7918 28.911 55.9331C30.1598 54.6201 31.238 53.1671 32.2702 51.6801C32.5145 51.3285 32.5779 50.8911 32.7059 50.5083C32.9188 49.8701 32.8865 49.151 32.9718 48.4684C33.034 47.9709 33.1263 47.4772 33.1934 46.9802C33.2605 46.4831 33.0431 45.9546 33.4076 45.4824C33.4987 45.3644 33.41 45.1154 33.4233 44.9282C33.4589 44.4183 33.5074 43.9089 33.5467 43.399C33.5832 42.9235 33.4465 42.3225 33.6867 42.0019C34.0359 41.5355 33.7588 41.0289 34.0516 40.5489C34.3428 40.0717 34.2235 39.3556 34.3304 38.7521C34.559 37.4581 34.7935 36.1641 35.0731 34.8801C35.2367 34.1283 35.5158 33.4056 35.6969 32.6525C35.8671 31.9459 36.1993 31.2799 36.4151 30.5815C36.6524 29.8128 37.024 29.0946 37.3367 28.3656C37.9166 27.0149 38.2388 25.5776 38.8489 24.2476C39.6326 22.5373 40.1077 20.6776 41.2927 19.1604C41.6721 17.827 42.7776 16.9377 43.3902 15.7391C43.6653 15.201 44.1822 14.7905 44.5645 14.3026C45.8816 12.6218 47.4916 11.2218 48.9563 9.6826C50.0506 8.53278 51.2687 7.5213 52.5387 6.58769C53.761 5.68846 54.9261 4.68154 56.3576 4.09544C56.9445 3.43728 57.8218 3.24923 58.5243 2.76668C59.1174 2.35952 59.8266 2.10355 60.5104 1.85047C61.4585 1.49964 62.463 1.2855 63.3804 0.87337C63.8907 0.643903 64.4192 0.751181 64.9316 0.522128C65.4671 0.282719 66.168 0.435145 66.7338 0.237157C67.6831 -0.0946179 68.6358 0.0772756 69.5851 0.0416543C70.525 0.00603304 71.4747 -0.0382865 72.4058 0.0590508C73.0234 0.123666 73.6476 0.320412 74.2615 0.452956C76.3084 0.896566 78.1529 1.8016 79.975 2.75923C80.9409 3.26745 81.8774 3.86142 82.7406 4.52911C84.8559 6.16562 86.8606 7.95165 88.6069 9.96964C90.103 11.6981 91.7503 13.2646 93.3586 14.8721C94.5474 16.0601 95.9333 17.0061 97.4928 17.6879C98.7619 18.2433 100.074 18.5651 101.438 18.8128C103.519 19.191 105.599 18.9586 107.675 18.9781C108.47 18.9856 109.312 18.8853 110.101 18.6004C110.368 18.5047 110.695 18.595 110.988 18.5523C111.263 18.5125 111.527 18.3991 111.8 18.3357C112.831 18.0963 113.872 17.8941 114.893 17.6199C115.871 17.3573 116.884 17.1167 117.791 16.7133C119.477 15.9615 121.211 15.3335 122.907 14.6104C124.699 13.8466 126.512 13.0989 128.376 12.5547C129.757 12.1517 131.126 11.6086 132.598 11.556C132.977 11.2466 133.47 11.4517 133.849 11.3025C134.311 11.1215 134.836 11.2578 135.207 11.0482C135.657 10.7931 136.077 10.9708 136.496 10.8763C137.848 10.5731 139.209 10.3681 140.602 10.4166C140.682 10.4195 140.768 10.2803 140.851 10.207C140.928 10.2786 141.009 10.3532 141.047 10.3884C141.473 10.3217 141.855 10.2434 142.241 10.2041C143.038 10.1233 143.855 10.3557 144.64 9.99242C144.824 9.90751 145.11 10.0454 145.47 10.0985C145.484 10.0906 145.628 10.0082 145.762 9.93195C145.885 10.0463 145.966 10.1221 146.046 10.1962C146.125 10.1225 146.206 10.0467 146.322 9.93982C146.436 9.99449 146.561 10.055 146.669 10.1067C146.967 10.0628 147.364 9.87686 147.553 10.0028C148.017 10.3101 148.495 10.2293 148.945 10.1834C150.14 10.0616 151.307 10.3366 152.461 10.4808C153.646 10.6282 154.849 10.8531 156.021 11.1319C156.732 11.3009 157.481 11.3402 158.164 11.6749C158.471 11.8253 158.885 11.7433 159.215 11.8638C159.736 12.0543 160.35 12.017 160.774 12.4598C161.339 12.3314 161.874 12.5485 162.344 12.758C162.857 12.9863 163.407 13.0869 163.921 13.3201C164.375 13.5264 164.911 13.6511 165.408 13.8167C166.301 14.1133 167.269 14.2869 168.063 14.7537C168.952 15.2756 169.955 15.4628 170.841 15.9801C171.827 16.5567 172.936 16.9208 173.956 17.446C174.386 17.668 174.985 17.7098 175.163 18.3059C175.807 18.2421 176.139 18.8348 176.67 19.0311C177.156 19.2105 177.598 19.5315 178.033 19.8276C178.829 20.3706 179.575 20.9924 180.398 21.4873C181.494 22.1463 182.304 23.1549 183.387 23.8189C183.881 24.6535 184.902 24.9977 185.313 25.9379C185.467 26.2912 185.861 26.5505 186.171 26.8231C187.36 27.8681 188.161 29.2205 189.087 30.4743C189.696 31.2989 190.204 32.1874 190.657 33.1003C191.259 34.3156 191.889 35.5225 192.317 36.8169C192.525 37.4465 192.72 38.0806 192.93 38.7094C192.963 38.808 193.044 38.89 193.027 38.8643Z" fill="#F99F00"/>
</svg>
