<svg width="17" height="18" viewBox="0 0 17 18" fill="none" xmlns="http://www.w3.org/2000/svg">
<path d="M4.78681 4.45144C5.15514 4.82551 7.02817 6.7731 7.91865 7.70014C6.41585 7.29747 4.27465 8.00226 3.00232 8.74317C1.73 9.48409 1.47686 10.7931 1.60621 11.2212C1.73556 11.6492 2.21329 12.4165 3.97564 12.397C5.38553 12.3814 7.21764 10.7414 7.95745 9.92337C7.67257 10.683 7.06473 12.5264 6.9125 13.8232C6.72222 15.4441 7.41397 15.777 7.58383 15.8717C7.7537 15.9664 8.54882 16.2778 9.30289 15.1029C9.90615 14.1631 10.0277 12.2156 10.0131 11.3593C10.4085 12.252 12.3557 13.3639 13.195 13.1462C14.0343 12.9285 15.2228 11.7718 14.8384 10.2919C14.5309 9.10799 12.5775 8.40755 11.6392 8.20532C11.9558 7.99512 12.6568 7.50433 12.9274 7.2228C13.2658 6.87089 14.646 4.63449 13.5502 3.25906C12.4545 1.88363 11.0456 2.58793 10.0465 3.40206C9.24723 4.05336 8.8902 5.28867 8.81159 5.82492C8.57356 5.49888 8.01452 4.75572 7.68262 4.39141C7.26774 3.93602 5.64286 2.71385 4.73346 3.01109C3.82407 3.30834 4.32639 3.98385 4.78681 4.45144Z" fill="#FE6641"/>
</svg>
